<svg height="512pt" viewBox="0 0 512 512" width="512pt" xmlns="http://www.w3.org/2000/svg"><path d="m492 471.996094h-131v-98c0-11.046875-8.953125-20-20-20s-20 8.953125-20 20v98h-41v-400.796875h21c11.046875 0 20 8.953125 20 20v46.796875c0 11.042968 8.953125 20 20 20s20-8.957032 20-20v-46.796875c0-33.136719-26.863281-60-60-60h-26.808594c-3.289062-6.652344-7.886718-12.667969-13.648437-17.628907-12.363281-10.648437-28.714844-15.371093-44.851563-12.949218l-164.59375 24.691406c-14.203125 2.128906-27.1875 9.296875-36.5625 20.183594-9.375 10.882812-14.535156 24.789062-14.535156 39.152344v407.347656c0 11.046875 8.953125 20 20 20h472c11.046875 0 20-8.953125 20-20s-8.953125-20-20-20zm-252 0h-200v-387.347656c0-9.980469 7.164062-18.296876 17.03125-19.78125l164.59375-24.6875c6.3125-.945313 10.738281 1.910156 12.816406 3.699218 2.074219 1.789063 5.558594 5.742188 5.558594 12.125zm98.789062-258.507813 38.148438-37.714843c7.855469-7.765626 20.519531-7.695313 28.285156.160156 7.765625 7.855468 7.691406 20.519531-.160156 28.285156l-32.144531 31.777344h119.082031c11.046875 0 20 8.953125 20 20 0 11.042968-8.953125 20-20 20h-119.082031l32.144531 31.777344c7.851562 7.765624 7.925781 20.425781.160156 28.28125-3.910156 3.957031-9.066406 5.9375-14.222656 5.9375-5.082031 0-10.164062-1.921876-14.0625-5.777344l-38.148438-37.714844c-11.472656-11.339844-17.789062-26.433594-17.789062-42.503906 0-16.070313 6.316406-31.167969 17.789062-42.507813zm-137.789062 21.507813v44c0 11.046875-8.953125 20-20 20s-20-8.953125-20-20v-44c0-11.046875 8.953125-20 20-20s20 8.953125 20 20zm0 0"/></svg>